PathFileType	4	(X/Y/Z)	C:/Users/beibeiliu/ov580/test_trc/User3\sequence.34_training_dense_right.trc
DataRate	CameraRate	NumFrames	NumMarkers	Units	OrigDataRate	OrigDataStartFrame	OrigNumFrames
120	120	18	19	mm	120	56	83
Frame#	Time	ThumbCMC			ThumbMCP			ThumbIP			ThumbTip			IndexMCP			IndexPIP			IndexTip			MiddleMCP			MiddlePIP			MiddleTip			RingMCP			RingPIP			RingTip			PinkyMCP			PinkyPIP			PinkyTip			BackHand1			BackHand2			BackHand3	
		X0	Y0	Z0	X1	Y1	Z1	X2	Y2	Z2	X3	Y3	Z3	X4	Y4	Z4	X5	Y5	Z5	X6	Y6	Z6	X7	Y7	Z7	X8	Y8	Z8	X9	Y9	Z9	X10	Y10	Z10	X11	Y11	Z11	X12	Y12	Z12	X13	Y13	Z13	X14	Y14	Z14	X15	Y15	Z15	X16	Y16	Z16	X17	Y17	Z17	X18	Y18	Z18	
55	0.458333	151.303	41.6707	-5.07181	141.255	53.7497	-33.0657	129.18	58.1328	-57.6177	117.417	46.7946	-79.7857	145.538	22.6444	-80.6101	117.482	22.6502	-94.1005	91.0947	26.7564	-83.2752	138.752	2.19327	-80.2536	106.739	6.96439	-86.9698	79.2917	12.9472	-58.8256	135.65	-18.616	-69.1973	103.784	-9.34708	-75.3459	85.0916	-2.80834	-49.2959	134.391	-32.8438	-56.4486	105.674	-29.6172	-63.7059	89.2149	-10.8592	-50.7579	172.73	-16.0388	-25.6385	173.991	-13.8224	7.98443	176.997	21.1021	-14.6754	
56	0.466667	152.261	40.4058	-3.79669	139.212	51.6751	-31.6415	130.023	52.5343	-58.5543	119.076	47.3374	-79.7449	147.778	21.2441	-78.6472	121.659	26.5481	-91.2355	93.0278	29.5359	-72.9152	142.315	2.73365	-78.3209	111.02	5.38942	-84.2907	86.4549	13.7581	-54.6732	139.904	-14.6504	-68.7289	107.13	-14.1663	-73.0843	91.9918	-4.04577	-46.4231	138.251	-31.1626	-57.3574	110.263	-30.5021	-64.1258	93.8012	-14.4804	-44.6854	173.981	-17.2443	-21.3359	177.066	-14.8556	8.44886	178.284	16.771	-12.0945	
57	0.475	151.848	39.9706	-1.56312	139.143	50.0512	-32.5117	128.366	54.0052	-60.8673	119.846	49.9772	-76.1142	150.591	24.9981	-76.1127	119.154	25.6093	-87.198	97.3683	26.8953	-61.5628	143.344	1.219	-76.6275	109.106	7.28609	-80.1681	92.1443	10.657	-47.8184	142.036	-17.9455	-67.5213	111.097	-13.6918	-72.2209	97.8306	0.473196	-43.4518	140.515	-35.8265	-58.8976	116.584	-28.086	-66.0458	98.3768	-11.6754	-43.5036	177.723	-13.9113	-21.0301	178.783	-16.2922	6.53502	180.1	15.8989	-10.3758	
58	0.483333	153.168	38.8103	-3.70854	139.411	51.4358	-27.562	130.307	60.2469	-53.8344	120.895	56.4227	-76.2405	148.617	21.7166	-74.6712	115.588	27.5754	-83.5542	98.5902	28.369	-57.1339	144.355	0.858609	-75.2126	107.547	2.98662	-77.8074	91.954	12.359	-42.4207	142.397	-14.8618	-68.4961	109.671	-15.8538	-68.7438	97.978	-3.4324	-42.8668	141.664	-37.1675	-56.6328	115.209	-31.5422	-64.3988	98.1867	-16.0363	-44.0125	175.893	-17.9873	-19.2233	179.284	-16.9344	12.0546	180.503	15.8043	-8.26354	
59	0.491667	153.598	38.273	-2.96938	143.206	56.6031	-28.1477	133.479	56.4321	-56.4518	122.668	57.0469	-75.2422	147.273	23.224	-76.1842	116.471	23.5064	-85.5106	95.0501	23.8448	-60.1044	139.233	-0.470237	-77.7973	106.264	3.39444	-79.9957	88.3077	9.66452	-48.5478	138.824	-20.2042	-68.9932	107.104	-17.6851	-70.6645	94.5592	-6.91493	-42.7372	139.999	-39.032	-54.4038	113.033	-35.1774	-63.5951	98.8445	-17.5114	-46.2686	173.665	-18.0738	-24.3155	178.073	-17.4513	10.8692	179.95	13.5534	-8.67391	
60	0.5	151.334	41.4042	-0.98107	140.895	50.2584	-28.5434	130.357	55.5523	-56.5523	118.586	52.54	-78.6334	144.515	18.9558	-78.8222	111.818	24.2286	-86.2514	90.9213	27.2144	-61.6083	140.982	0.477342	-76.5028	107.306	5.82592	-82.1697	84.601	7.34742	-45.7004	134.692	-21.3955	-70.7347	106.43	-18.1313	-70.7885	91.9924	-6.89163	-42.3945	137.312	-40.2855	-53.9132	111.631	-30.3588	-64.6564	94.2731	-20.8884	-45.5292	173.33	-20.2089	-22.8049	176.762	-18.3429	9.1101	178.219	13.5884	-12.6352	
61	0.508333	149.514	38.1379	-5.07605	135.868	50.9096	-29.0577	125.996	51.7592	-59.3284	117.639	44.8209	-77.8208	146.674	20.4399	-75.4236	112.23	18.8586	-86.0847	92.5298	25.5541	-64.1583	140.287	-4.49557	-74.5376	105.195	3.75751	-81.1518	85.545	9.28902	-48.5954	137.232	-19.1233	-69.046	108.412	-18.4418	-73.209	91.3828	-8.96796	-44.6263	138.224	-37.8283	-57.2454	113.873	-37.0059	-64.3295	93.8695	-17.1358	-45.4193	171.891	-20.3653	-23.2518	176.175	-18.4644	8.42365	177.167	16.7716	-11.3219	
62	0.516667	149.104	38.5541	-4.04055	135.101	46.1508	-29.6006	126.174	50.2435	-61.0644	117.389	51.1314	-78.7813	146.303	16.2411	-74.6982	116.054	15.7841	-86.2309	91.4638	22.2015	-62.3903	138.319	-5.13459	-78.9825	107.082	0.483768	-80.9234	86.2201	2.59511	-45.6418	139.782	-24.2032	-66.7298	106.807	-18.6096	-71.7246	92.3685	-9.47562	-40.879	140.986	-43.0412	-53.6828	114.352	-37.0282	-64.3107	97.2372	-19.4323	-46.6113	174.461	-18.7653	-20.0265	178.403	-19.4264	11.4184	175.898	14.3783	-12.0748	
63	0.525	147.172	39.8825	-5.44804	133.748	48.3548	-29.9812	123.45	55.6768	-57.1659	112.413	54.9664	-79.8441	144.821	14.7831	-75.4721	112.215	19.1155	-88.7568	89.6268	15.1559	-65.024	139.654	-6.10451	-76.2764	109.02	-3.85491	-82.1637	83.1883	-2.48117	-47.1211	140.399	-25.2358	-65.742	109.326	-25.072	-70.5089	92.6081	-15.4435	-44.5547	141.47	-42.7914	-53.0299	118.124	-38.6147	-63.6518	95.826	-25.2239	-46.4505	176.219	-18.4958	-23.3453	178.068	-16.0798	11.6702	174.395	17.9421	-12.3111	
64	0.533333	145.194	39.5093	1.25126	130.556	51.9158	-30.0255	117.595	56.985	-52.6812	107.446	50.0137	-76.7936	145.201	20.5777	-75.3159	110.85	18.7122	-89.6676	87.4093	15.5104	-69.5879	138.758	-0.835317	-77.0402	106.775	-5.21783	-81.6256	81.6685	0.515204	-52.549	139.309	-22.7443	-66.6332	104.729	-25.0893	-69.355	90.4765	-14.683	-46.5089	140.416	-39.3268	-54.3587	113.366	-37.9621	-62.1692	93.4863	-27.2384	-43.7687	174.457	-18.2055	-23.5062	178.48	-15.6784	10.3303	173.327	17.1922	-9.51114	
65	0.541667	143.131	40.0551	0.422104	127.407	46.2835	-26.409	114.747	50.4294	-52.6356	103.465	42.8535	-72.4867	143.687	20.9336	-73.651	111.679	15.8695	-88.1492	87.0439	16.468	-72.8032	135.605	-4.1009	-78.1289	105.615	-2.95564	-81.2389	81.1957	2.39687	-52.87	135.753	-19.0149	-68.0944	105.352	-19.578	-70.4842	89.0745	-9.83133	-43.0063	137.018	-38.0201	-55.4181	108.622	-36.6913	-59.487	93.907	-23.4522	-43.0236	173.267	-17.1027	-20.0354	175.659	-13.8403	12.0158	174.484	15.6844	-11.1389	
66	0.55	142.842	39.4966	-0.173162	126.501	44.0413	-25.8975	114.864	46.594	-56.7585	105.159	39.2224	-74.7026	142.255	18.6434	-75.202	115.161	21.0326	-89.3765	85.3237	19.2286	-69.7476	139.139	-2.39403	-74.951	105.612	-1.95845	-80.9302	81.9976	1.01756	-47.815	135.054	-21.899	-69.1764	103.336	-20.7295	-68.3773	90.4302	-10.1442	-43.3068	138.144	-39.3335	-54.4587	113.478	-37.7879	-61.6156	92.7581	-24.4899	-40.417	173.743	-20.4102	-22.5806	174.549	-17.1782	10.2452	173.115	15.5978	-7.35155	
67	0.558333	146.835	41.9314	-1.61138	132.069	46.8655	-28.9481	121.951	46.6359	-58.0771	110.558	45.5142	-76.9226	147.279	16.8209	-76.563	118.126	19.3261	-90.8526	90.9022	17.1046	-73.8797	139.43	-0.386731	-78.5227	109.781	-2.70088	-82.6706	85.5118	1.38102	-53.4719	141.727	-23.0577	-66.1651	110.269	-20.7583	-72.0826	93.4919	-10.7684	-45.2213	140.366	-41.5996	-53.4352	112.615	-33.9532	-63.3307	95.1712	-23.8608	-44.7187	175.223	-18.3215	-19.2978	177.376	-18.3893	13.2657	176.378	17.876	-11.0575	
68	0.566667	148.736	41.7406	-3.06199	135.688	47.6225	-28.7431	123.227	52.3703	-59.9724	113.648	44.7234	-79.7902	151.242	15.7563	-75.8133	124.353	14.2661	-94.1643	94.9148	19.9955	-80.8417	141.54	-5.67797	-80.3204	112.08	-3.92165	-83.9843	86.2468	2.13007	-55.5533	141.453	-24.8318	-67.9332	111.638	-19.7691	-72.9567	93.5198	-7.15487	-45.0208	141.206	-39.5992	-55.2155	118.637	-35.971	-64.3139	96.4895	-19.7048	-46.2603	176.488	-16.5382	-19.8493	177.741	-17.1069	9.031	177.793	13.1257	-11.7698	
69	0.575	149.398	36.9262	-5.3784	135.123	45.5374	-29.1721	123.38	45.8129	-61.3621	112.526	40.4925	-77.076	148.992	19.3923	-79.3821	122.591	18.6296	-94.0051	94.0308	21.1453	-82.0278	143.432	-2.3249	-78.6525	111.556	0.347991	-84.7331	86.8674	0.997248	-54.0159	143.025	-22.5698	-66.8388	113.175	-18.3683	-73.7675	94.2522	-11.5417	-44.3932	142.099	-36.3142	-56.8317	117.684	-39.3781	-64.1606	97.7853	-24.8519	-48.1714	176.387	-19.4526	-21.9082	178.29	-12.4927	11.8397	176.713	17.7248	-7.72719	
70	0.583333	146.255	37.1735	-0.430191	131.101	42.4394	-29.0148	119.247	48.3092	-57.925	110.397	42.8959	-77.8462	149.72	18.9287	-78.0516	123.68	20.7693	-93.2007	92.063	21.9547	-80.1796	148.246	-2.66012	-77.4791	117.645	2.31386	-87.4439	90.7094	-0.490618	-59.4845	148.547	-17.2394	-67.608	119.38	-18.4804	-78.3893	97.6308	-10.2431	-53.0208	149.967	-33.5259	-57.5547	123.767	-35.2104	-68.4839	104.042	-25.0501	-56.3291	177.037	-16.1859	-21.2776	179.021	-12.6033	8.91805	179.23	18.5189	-8.17658	
71	0.591667	138.103	39.2461	0.210647	120.854	46.0742	-24.4975	111.431	45.134	-54.9001	100.921	45.5212	-77.2926	152.38	31.4724	-75.1084	129.026	22.0674	-96.4347	101.084	17.3938	-93.4269	155.542	13.9378	-81.6475	130.355	7.14696	-96.7355	96.9329	-5.61782	-73.8196	162.164	-6.3481	-71.7986	139.957	-17.749	-86.8259	108.813	-19.063	-67.7754	166.611	-24.8754	-55.8578	149.756	-28.5021	-76.348	123.251	-30.6988	-69.0895	185.013	-2.15088	-17.4878	182.83	-0.564475	14.6069	171.846	29.5431	-2.14244	
72	0.6	121.592	33.5671	3.68626	102.757	35.6554	-25.5056	90.2821	36.1276	-51.9215	80.6964	32.415	-73.1201	143.084	42.7675	-71.8606	128.723	32.688	-103.221	110.43	11.8119	-112.341	158.518	29.9472	-81.4154	145.409	15.3538	-107.02	119.336	-9.69815	-108.303	172.271	16.1779	-70.819	159.894	2.91492	-98.424	139.09	-22.7987	-97.8141	182.326	-2.0228	-56.2225	174.62	-13.3099	-83.1967	153.543	-32.411	-88.5849	182.491	21.5827	-18.1064	182.914	18.2894	8.33603	155.147	43.3202	-6.37971	
